<svg width="15" height="15" viewBox="0 0 15 15" fill="none" xmlns="http://www.w3.org/2000/svg">
<g clip-path="url(#clip0_240_404)">
<path d="M7.99528 0C3.58668 0 0 3.3645 0 7.5C0 11.6355 3.58668 15 7.99528 15C12.4039 15 15.9906 11.6355 15.9906 7.5C15.9906 3.3645 12.4039 0 7.99528 0ZM7.99528 12.9545C4.78903 12.9545 2.18053 10.5076 2.18053 7.5C2.18053 4.49236 4.78903 2.04545 7.99528 2.04545C11.2015 2.04545 13.81 4.49236 13.81 7.5C13.81 10.5076 11.2015 12.9545 7.99528 12.9545ZM10.1553 8.74527L11.3341 9.77243L10.7401 10.2601C9.99614 10.8707 9.04572 11.2071 8.06412 11.2071C5.85858 11.2071 4.06422 9.55861 4.06422 7.53245C4.06422 5.51093 5.85858 3.86625 8.06412 3.86625C9.04652 3.86625 9.99374 4.19952 10.7311 4.8047L11.3033 5.27448L10.1736 6.33477L9.67204 5.91907C9.24051 5.56159 8.66958 5.36468 8.06412 5.36468C6.73937 5.36468 5.66161 6.33716 5.66161 7.53239C5.66161 8.73239 6.73937 9.70861 8.06412 9.70861C8.66289 9.70861 9.2339 9.50864 9.67204 9.14557L10.1553 8.74527Z" fill="white" fill-opacity="0.6"/>
</g>
<defs>
<clipPath id="clip0_240_404">
<path d="M0 7.5C0 3.35786 3.35786 0 7.5 0V0C11.6421 0 15 3.35787 15 7.5V15H0V7.5Z" fill="white"/>
</clipPath>
</defs>
</svg>
