<svg width="37" height="35" viewBox="0 0 37 35" fill="none" xmlns="http://www.w3.org/2000/svg">
<path d="M18.8275 0C8.94292 0 0.929688 7.86792 0.929688 17.5733C0.929688 26.2778 7.38221 33.4867 15.8425 34.8826V21.2395H11.525V16.3299H15.8425V12.7098C15.8425 8.50939 18.4554 6.22042 22.2722 6.22042C24.1002 6.22042 25.6712 6.35416 26.1272 6.41307V10.8036L23.48 10.8049C21.4047 10.8049 21.0046 11.773 21.0046 13.194V16.3274H25.9564L25.3106 21.237H21.0046V35C29.8599 33.9418 36.7251 26.5493 36.7251 17.5682C36.7251 7.86792 28.7119 0 18.8275 0Z" fill="#0D1333"/>
</svg>
