<svg width="36" height="35" viewBox="0 0 36 35" fill="none" xmlns="http://www.w3.org/2000/svg">
<path d="M35.7045 10.2901C35.6206 8.43044 35.313 7.15192 34.8723 6.04406C34.4177 4.8681 33.7183 3.81526 32.802 2.94004C31.9067 2.05119 30.8226 1.36051 29.6336 0.923035C28.4938 0.492232 27.1928 0.191498 25.2905 0.109503C23.374 0.0205653 22.7655 0 17.9047 0C13.0439 0 12.4354 0.0205653 10.526 0.102559C8.62368 0.184554 7.31586 0.485555 6.18288 0.916091C4.97969 1.36051 3.90272 2.04424 3.00743 2.94004C2.09821 3.81526 1.39197 4.87504 0.944193 6.03738C0.503515 7.15192 0.195887 8.42349 0.112014 10.2832C0.0210367 12.1568 0 12.7516 0 17.5035C0 22.2554 0.0210367 22.8502 0.10491 24.7168C0.188784 26.5765 0.496685 27.855 0.937363 28.9629C1.39197 30.1388 2.09821 31.1917 3.00743 32.0669C3.90272 32.9558 4.98679 33.6464 6.17578 34.0839C7.31586 34.5147 8.61658 34.8154 10.5192 34.8974C12.4283 34.9797 13.037 35 17.8979 35C22.7587 35 23.3671 34.9797 25.2766 34.8974C27.1789 34.8154 28.4867 34.5147 29.6197 34.0839C32.0258 33.1745 33.9281 31.3148 34.8584 28.9629C35.2988 27.8484 35.6067 26.5765 35.6905 24.7168C35.7744 22.8502 35.7955 22.2554 35.7955 17.5035C35.7955 12.7516 35.7884 12.1568 35.7045 10.2901ZM32.4804 24.5801C32.4034 26.2894 32.1097 27.2124 31.8649 27.8278C31.2633 29.3526 30.0254 30.5627 28.4657 31.1508C27.8362 31.3901 26.8852 31.6772 25.1435 31.7523C23.2551 31.8345 22.6888 31.8548 17.9118 31.8548C13.1348 31.8548 12.5614 31.8345 10.6798 31.7523C8.93131 31.6772 7.98712 31.3901 7.35766 31.1508C6.58148 30.8704 5.87498 30.426 5.30152 29.8448C4.70703 29.2772 4.25242 28.5935 3.96556 27.8347C3.72076 27.2194 3.42707 26.2894 3.3503 24.587C3.26615 22.7409 3.24539 22.187 3.24539 17.5171C3.24539 12.8472 3.26615 12.2866 3.3503 10.4474C3.42707 8.73811 3.72076 7.81508 3.96556 7.19972C4.25242 6.44068 4.70703 5.75027 5.30863 5.1894C5.88891 4.60823 6.58831 4.16381 7.36476 3.88364C7.99422 3.64433 8.94552 3.35722 10.6869 3.2819C12.5753 3.19991 13.1419 3.17934 17.9186 3.17934C22.7027 3.17934 23.2691 3.19991 25.1506 3.2819C26.8991 3.35722 27.8433 3.64433 28.4728 3.88364C29.2489 4.16381 29.9555 4.60823 30.5289 5.1894C31.1234 5.75695 31.578 6.44068 31.8649 7.19972C32.1097 7.81508 32.4034 8.74479 32.4804 10.4474C32.5643 12.2935 32.5853 12.8472 32.5853 17.5171C32.5853 22.187 32.5643 22.734 32.4804 24.5801Z" fill="#0D1333"/>
<path d="M17.897 10C13.6624 10 10.2266 13.3592 10.2266 17.5C10.2266 21.6408 13.6624 25 17.897 25C22.1319 25 25.5675 21.6408 25.5675 17.5C25.5675 13.3592 22.1319 10 17.897 10ZM17.897 22.3651C15.1498 22.3651 12.9214 20.1864 12.9214 17.5C12.9214 14.8136 15.1498 12.6349 17.897 12.6349C20.6445 12.6349 22.8727 14.8136 22.8727 17.5C22.8727 20.1864 20.6445 22.3651 17.897 22.3651Z" fill="#0D1333"/>
<path d="M30.6839 9.16699C30.6839 10.5476 29.5392 11.667 28.127 11.667C26.7151 11.667 25.5703 10.5476 25.5703 9.16699C25.5703 7.78609 26.7151 6.66699 28.127 6.66699C29.5392 6.66699 30.6839 7.78609 30.6839 9.16699Z" fill="#0D1333"/>
</svg>
