<svg width="36" height="35" viewBox="0 0 36 35" fill="none" xmlns="http://www.w3.org/2000/svg">
<path d="M33.417 0H2.78472C1.35887 0 0.203125 1.13007 0.203125 2.52422V32.4758C0.203125 33.8699 1.35887 35 2.78472 35H33.417C34.8428 35 35.9986 33.8699 35.9986 32.4758V2.52422C35.9986 1.13007 34.8428 0 33.417 0V0ZM12.9 26.4551H8.54107V13.6326H12.9V26.4551ZM10.7207 11.8817H10.6923C9.22955 11.8817 8.28354 10.8972 8.28354 9.66671C8.28354 8.40847 9.2585 7.45117 10.7496 7.45117C12.2407 7.45117 13.1583 8.40847 13.1867 9.66671C13.1867 10.8972 12.2407 11.8817 10.7207 11.8817ZM28.6173 26.4551H24.2589V19.5954C24.2589 17.8714 23.6278 16.6957 22.0507 16.6957C20.8466 16.6957 20.1294 17.4888 19.8143 18.2544C19.699 18.5283 19.6709 18.9112 19.6709 19.2944V26.4551H15.3123C15.3123 26.4551 15.3693 14.8356 15.3123 13.6326H19.6709V15.4482C20.2501 14.5744 21.2865 13.3317 23.5991 13.3317C26.4669 13.3317 28.6173 15.1643 28.6173 19.1027V26.4551Z" fill="#0D1333"/>
</svg>
