<svg width="41" height="33" viewBox="0 0 41 33" fill="none" xmlns="http://www.w3.org/2000/svg">
<path d="M40.0717 4.41584C38.6138 5.05161 37.0603 5.47302 35.4407 5.67763C37.1069 4.68866 38.3786 3.13456 38.9765 1.26135C37.423 2.18212 35.7078 2.83251 33.8799 3.19545C32.4048 1.63404 30.3024 0.666992 28.009 0.666992C23.5593 0.666992 19.977 4.25751 19.977 8.65917C19.977 9.29251 20.0309 9.90148 20.1632 10.4812C13.4812 10.1572 7.56871 6.97353 3.5968 2.12366C2.90337 3.31968 2.49663 4.68866 2.49663 6.16238C2.49663 8.92956 3.93004 11.3825 6.06669 12.8026C4.77539 12.7783 3.50859 12.4056 2.43537 11.8185C2.43537 11.8429 2.43537 11.8746 2.43537 11.9062C2.43537 15.789 5.22134 19.0142 8.87472 19.7571C8.22049 19.9349 7.50746 20.0202 6.76747 20.0202C6.25291 20.0202 5.73345 19.991 5.24584 19.8838C6.28722 23.048 9.24226 25.3743 12.756 25.4498C10.0214 27.5763 6.5494 28.8576 2.79066 28.8576C2.13153 28.8576 1.49936 28.8284 0.867188 28.748C4.42745 31.0305 8.64684 32.3337 13.197 32.3337C27.9869 32.3337 36.0729 20.1542 36.0729 9.59699C36.0729 9.24379 36.0606 8.90276 36.0435 8.56417C37.6386 7.43879 38.9789 6.03327 40.0717 4.41584Z" fill="#0D1333"/>
</svg>
