<svg width="17" height="24" viewBox="0 0 17 24" fill="none" xmlns="http://www.w3.org/2000/svg">
<path d="M7.01921 18.6321C5.97706 18.3529 5.02239 17.9295 4.1552 17.3621C3.29151 16.7816 2.65416 16.164 2.24316 15.5094L3.37454 14.1789C3.77345 14.7745 4.3366 15.3303 5.06398 15.8463C5.79136 16.3624 6.59146 16.7373 7.46426 16.9712C8.2589 17.1841 8.92816 17.2657 9.47205 17.216C10.0159 17.1662 10.447 17.0164 10.7653 16.7666C11.087 16.5038 11.302 16.1705 11.4102 15.7666C11.5359 15.2977 11.4808 14.878 11.2449 14.5076C11.0221 14.1407 10.6858 13.8063 10.2362 13.5043C9.80308 13.1928 9.31086 12.8934 8.75956 12.606C8.20825 12.3187 7.65567 12.01 7.10181 11.6801C6.56447 11.3407 6.08494 10.9679 5.66322 10.5616C5.25453 10.1589 4.96145 9.68947 4.78401 9.15324C4.61005 8.60399 4.6208 7.96461 4.81627 7.23511C5.00476 6.53166 5.35992 5.93569 5.88175 5.44722C6.42009 4.94921 7.12068 4.62731 7.98351 4.48153C8.86286 4.32621 9.90177 4.40911 11.1002 4.73024C11.8949 4.94317 12.6551 5.25856 13.3808 5.67642C14.1066 6.09428 14.7037 6.57541 15.1722 7.1198L14.1085 8.51025C13.627 7.96237 13.0833 7.51649 12.4773 7.17261C11.8748 6.81571 11.2675 6.55523 10.6552 6.39117C9.88661 6.18523 9.22863 6.11364 8.68125 6.1764C8.13387 6.23916 7.69931 6.40196 7.37756 6.66481C7.06884 6.93114 6.86037 7.26622 6.75217 7.67006C6.62302 8.15205 6.66986 8.57649 6.89268 8.94336C7.12854 9.31372 7.46477 9.64816 7.90139 9.94666C8.35103 10.2486 8.84976 10.5498 9.39758 10.8502C9.94888 11.1375 10.4949 11.4444 11.0358 11.7708C11.5896 12.1008 12.0709 12.4671 12.4796 12.8698C12.9013 13.276 13.2009 13.7472 13.3784 14.2834C13.5558 14.8197 13.5485 15.446 13.3566 16.1625C13.1716 16.8529 12.8099 17.4471 12.2716 17.9451C11.7367 18.4301 11.0231 18.7485 10.1307 18.9004C9.25485 19.0427 8.21769 18.9532 7.01921 18.6321Z" fill="#099820"/>
<path fill-rule="evenodd" clip-rule="evenodd" d="M3.80442 17.8868C2.89133 17.2731 2.18095 16.5963 1.70961 15.8456L1.46315 15.453L3.4364 13.1326L3.90164 13.8272C4.24877 14.3455 4.75216 14.8488 5.43162 15.3308C6.09697 15.8028 6.82845 16.1459 7.62973 16.3606C8.38512 16.563 8.97431 16.6269 9.41634 16.5865C9.87647 16.5444 10.1776 16.4239 10.3721 16.2731C10.5877 16.0954 10.7279 15.8776 10.8014 15.6031C10.8866 15.2851 10.8436 15.0514 10.7135 14.8473L10.7099 14.8416L10.7064 14.8359C10.542 14.5651 10.2784 14.293 9.88559 14.0292L9.87717 14.0235L9.86893 14.0176C9.46389 13.7263 8.99804 13.4423 8.46922 13.1667C7.90693 12.8736 7.34391 12.5591 6.78015 12.2233L6.77303 12.2191L6.76603 12.2147C6.19551 11.8542 5.6816 11.4554 5.22651 11.017L5.22133 11.012C4.74246 10.5402 4.39513 9.9848 4.18569 9.35192L4.18314 9.3442C3.96305 8.6493 3.99033 7.88202 4.20749 7.07156C4.42593 6.25635 4.84187 5.55651 5.45158 4.98577L5.4543 4.98322C6.09854 4.38725 6.91848 4.02108 7.87774 3.85864C8.87571 3.68284 10.0116 3.78363 11.2657 4.11968C12.1144 4.34709 12.9256 4.68383 13.6981 5.12863C14.4757 5.57631 15.1312 6.10089 15.6532 6.70752L15.9879 7.09645L14.1442 9.5065L13.6355 8.92763C13.1983 8.43018 12.709 8.02998 12.1672 7.72249L12.162 7.71958L12.157 7.71658C11.5989 7.386 11.0446 7.14955 10.4934 7.00187C9.77036 6.80813 9.19678 6.75389 8.75512 6.80453C8.29458 6.85733 7.98784 6.98671 7.78579 7.14924C7.57925 7.32954 7.44014 7.55204 7.36466 7.83374C7.27311 8.17542 7.3155 8.41563 7.43163 8.6099C7.61285 8.89238 7.88152 9.16575 8.25795 9.42343C8.68758 9.71187 9.16716 10.0017 9.69761 10.2928C10.2582 10.5852 10.8133 10.8972 11.3628 11.2288C11.9532 11.5806 12.4746 11.9761 12.9227 12.4171C13.4141 12.8912 13.7699 13.4488 13.9804 14.0849C14.207 14.7698 14.1831 15.5272 13.9691 16.3262C13.7523 17.135 13.3262 17.8325 12.7027 18.4093L12.6981 18.4135C12.0538 18.9978 11.2197 19.3567 10.2386 19.5236L10.2339 19.5244C9.24201 19.6856 8.11019 19.5785 6.85745 19.2428C5.75319 18.9469 4.7365 18.4968 3.81091 17.8911L3.80442 17.8868ZM12.4815 12.8699C12.0728 12.4671 11.5915 12.1008 11.0376 11.7709C10.4968 11.4445 9.95073 11.1376 9.39943 10.8503C8.85162 10.5499 8.35289 10.2487 7.90324 9.94672C7.46662 9.64822 7.13039 9.31379 6.89454 8.94343C6.67171 8.57655 6.62487 8.15212 6.75402 7.67012C6.86223 7.26629 7.07069 6.93121 7.37941 6.66487C7.70116 6.40203 8.13572 6.23923 8.6831 6.17647C9.23048 6.11371 9.88847 6.1853 10.6571 6.39124C11.2693 6.55529 11.8767 6.81577 12.4792 7.17268C12.9057 7.41472 13.3014 7.7073 13.6662 8.05042C13.8197 8.19477 13.9678 8.34807 14.1104 8.51031L15.174 7.11987C14.7056 6.57548 14.1085 6.09435 13.3827 5.67649C12.6569 5.25863 11.8967 4.94323 11.1021 4.73031C9.90362 4.40918 8.86471 4.32628 7.98536 4.4816C7.12253 4.62738 6.42195 4.94928 5.8836 5.44729C5.36177 5.93576 5.00662 6.53173 4.81813 7.23518C4.62266 7.96468 4.6119 8.60406 4.78586 9.15331C4.96331 9.68953 5.25638 10.159 5.66507 10.5617C6.08679 10.9679 6.56632 11.3407 7.10367 11.6802C7.65753 12.0101 8.21011 12.3187 8.76141 12.6061C9.31272 12.8934 9.80493 13.1929 10.2381 13.5044C10.6877 13.8064 11.0239 14.1408 11.2468 14.5077C11.4826 14.8781 11.5377 15.2977 11.4121 15.7667C11.3038 16.1705 11.0889 16.5039 10.7671 16.7667C10.4489 17.0165 10.0178 17.1663 9.4739 17.216C8.93002 17.2658 8.26075 17.1842 7.46611 16.9712C6.59331 16.7374 5.79322 16.3624 5.06583 15.8464C4.55168 15.4816 4.11959 15.097 3.76956 14.6925C3.62439 14.5248 3.49334 14.3536 3.3764 14.179L2.24501 15.5094C2.65601 16.1641 3.29336 16.7816 4.15706 17.3621C5.02425 17.9296 5.97892 18.3529 7.02107 18.6322C8.21954 18.9533 9.25671 19.0427 10.1326 18.9004C11.0249 18.7486 11.7386 18.4302 12.2734 17.9452C12.8118 17.4472 13.1734 16.853 13.3584 16.1626C13.5504 15.4461 13.5577 14.8197 13.3802 14.2835C13.2028 13.7473 12.9032 13.2761 12.4815 12.8699Z" fill="#099820"/>
<path d="M11.8125 0.21582L14.1877 1.08331L6.16344 23.0543L3.78819 22.1869L11.8125 0.21582Z" fill="#099820"/>
<path fill-rule="evenodd" clip-rule="evenodd" d="M13.3771 1.46025L12.1894 1.02651L4.59888 21.8099L5.7865 22.2437L13.3771 1.46025ZM11.8125 0.21582L3.78819 22.1869L6.16344 23.0543L14.1877 1.08331L11.8125 0.21582Z" fill="#099820"/>
</svg>
