<svg width="23" height="77" viewBox="0 0 23 77" fill="none" xmlns="http://www.w3.org/2000/svg">
<path fill-rule="evenodd" clip-rule="evenodd" d="M15.0034 5.17977L6.47213 5.22732C5.94861 5.23024 5.52185 5.657 5.51893 6.18053L5.47138 14.7118C5.46846 15.2354 5.89049 15.6574 6.41402 15.6545C6.93754 15.6516 7.3643 15.2248 7.36722 14.7013L7.40202 8.45845L16.5422 17.5986L17.8903 16.2506L8.75006 7.11041L14.9929 7.07561C15.5164 7.0727 15.9432 6.64593 15.9461 6.12241C15.949 5.59888 15.527 5.17685 15.0034 5.17977Z" fill="#0085FF"/>
<path fill-rule="evenodd" clip-rule="evenodd" d="M15.0034 72.2233L6.47213 72.1758C5.94861 72.1728 5.52185 71.7461 5.51893 71.2226L5.47138 62.6912C5.46846 62.1677 5.89049 61.7457 6.41402 61.7486C6.93754 61.7515 7.3643 62.1783 7.36722 62.7018L7.40202 68.9446L16.5422 59.8044L17.8903 61.1525L8.75006 70.2927L14.9929 70.3275C15.5164 70.3304 15.9432 70.7571 15.9461 71.2807C15.949 71.8042 15.527 72.2262 15.0034 72.2233Z" fill="#0085FF"/>
</svg>
