<svg width="22" height="77" viewBox="0 0 22 77" fill="none" xmlns="http://www.w3.org/2000/svg">
<path fill-rule="evenodd" clip-rule="evenodd" d="M7.52781 5.17977L16.0591 5.22732C16.5826 5.23024 17.0094 5.657 17.0123 6.18053L17.0599 14.7118C17.0628 15.2354 16.6408 15.6574 16.1172 15.6545C15.5937 15.6516 15.1669 15.2248 15.164 14.7013L15.1292 8.45845L5.98903 17.5986L4.64099 16.2506L13.7812 7.11041L7.53838 7.07561C7.01485 7.0727 6.58809 6.64593 6.58517 6.12241C6.58225 5.59888 7.00428 5.17685 7.52781 5.17977Z" fill="#0085FF"/>
<path fill-rule="evenodd" clip-rule="evenodd" d="M7.52781 72.2233L16.0591 72.1758C16.5826 72.1728 17.0094 71.7461 17.0123 71.2226L17.0599 62.6912C17.0628 62.1677 16.6408 61.7457 16.1172 61.7486C15.5937 61.7515 15.1669 62.1783 15.164 62.7018L15.1292 68.9446L5.98903 59.8044L4.64099 61.1525L13.7812 70.2927L7.53838 70.3275C7.01485 70.3304 6.58809 70.7571 6.58517 71.2807C6.58225 71.8042 7.00428 72.2262 7.52781 72.2233Z" fill="#0085FF"/>
</svg>
