<svg width="206" height="62" viewBox="0 0 206 62" fill="none" xmlns="http://www.w3.org/2000/svg">
<path d="M40.1008 39.858C38.3125 39.858 36.7029 39.4841 35.2723 38.7362C33.8578 37.9721 32.7442 36.9154 31.9313 35.566C31.1184 34.2166 30.712 32.6883 30.712 30.9813C30.712 29.2742 31.1184 27.746 31.9313 26.3966C32.7442 25.0472 33.8578 23.9986 35.2723 23.2507C36.7029 22.4866 38.3125 22.1046 40.1008 22.1046C41.6615 22.1046 43.0678 22.3809 44.3197 22.9337C45.5715 23.4865 46.612 24.2831 47.4412 25.3236L44.3685 28.1037C43.2629 26.7705 41.9217 26.104 40.3447 26.104C39.418 26.104 38.5888 26.3072 37.8572 26.7136C37.1419 27.1201 36.581 27.6972 36.1746 28.4451C35.7844 29.1767 35.5893 30.0221 35.5893 30.9813C35.5893 31.9405 35.7844 32.794 36.1746 33.5419C36.581 34.2735 37.1419 34.8425 37.8572 35.2489C38.5888 35.6554 39.418 35.8586 40.3447 35.8586C41.9217 35.8586 43.2629 35.192 44.3685 33.8589L47.4412 36.639C46.612 37.6795 45.5715 38.4761 44.3197 39.0289C43.0678 39.5816 41.6615 39.858 40.1008 39.858ZM53.7886 27.8842C54.26 27.2826 54.8697 26.8356 55.6176 26.5429C56.3817 26.234 57.2515 26.0796 58.2269 26.0796V30.2497C57.8042 30.2009 57.4547 30.1765 57.1783 30.1765C56.1866 30.1765 55.4062 30.4448 54.8372 30.9813C54.2844 31.5178 54.008 32.3388 54.008 33.4443V39.5166H49.3746V26.2991H53.7886V27.8842ZM67.092 36.2C67.7261 36.2 68.2707 36.1106 68.7259 35.9318C69.1974 35.7529 69.6689 35.4603 70.1404 35.0539L72.5546 37.5901C71.3028 39.0207 69.4331 39.7361 66.9457 39.7361C65.4012 39.7361 64.0437 39.4434 62.8731 38.8582C61.7026 38.2729 60.7922 37.46 60.1418 36.4195C59.5078 35.379 59.1908 34.2003 59.1908 32.8834C59.1908 31.5828 59.5078 30.4204 60.1418 29.3962C60.7759 28.3557 61.6457 27.5428 62.7512 26.9575C63.873 26.3722 65.1248 26.0796 66.5068 26.0796C67.7911 26.0796 68.9617 26.3478 70.0184 26.8843C71.0914 27.4046 71.945 28.1768 72.579 29.2011C73.2131 30.209 73.5301 31.4121 73.5301 32.8103L64.0925 34.6149C64.5965 35.6716 65.5963 36.2 67.092 36.2ZM66.5311 29.3718C65.7345 29.3718 65.0842 29.6238 64.5802 30.1278C64.0762 30.6155 63.7917 31.3227 63.7267 32.2494L69.0917 31.2008C68.9292 30.648 68.6203 30.209 68.165 29.8839C67.7098 29.5425 67.1652 29.3718 66.5311 29.3718ZM89.6399 26.2991V39.5166H85.226V38.1997C84.3643 39.224 83.0637 39.7361 81.3241 39.7361C80.121 39.7361 79.0236 39.4597 78.0319 38.9069C77.0564 38.3379 76.2761 37.5332 75.6908 36.4927C75.1218 35.4522 74.8373 34.2491 74.8373 32.8834C74.8373 31.5178 75.1218 30.3228 75.6908 29.2986C76.2761 28.2581 77.0564 27.4615 78.0319 26.9087C79.0236 26.356 80.121 26.0796 81.3241 26.0796C82.8848 26.0796 84.1123 26.5348 85.0065 27.4452V26.2991H89.6399ZM82.2996 36.0537C83.1124 36.0537 83.779 35.7773 84.2993 35.2246C84.8195 34.6555 85.0796 33.8752 85.0796 32.8834C85.0796 31.908 84.8195 31.1439 84.2993 30.5911C83.779 30.0383 83.1124 29.762 82.2996 29.762C81.4867 29.762 80.8201 30.0383 80.2999 30.5911C79.7796 31.1439 79.5195 31.908 79.5195 32.8834C79.5195 33.8752 79.7796 34.6555 80.2999 35.2246C80.8201 35.7773 81.4867 36.0537 82.2996 36.0537ZM101.134 38.9801C100.743 39.224 100.264 39.4109 99.6948 39.541C99.1421 39.6711 98.5487 39.7361 97.9146 39.7361C96.1913 39.7361 94.8663 39.3134 93.9396 38.468C93.0292 37.6226 92.574 36.3626 92.574 34.6881V23.3483H97.2074V26.7868H100.207V30.2497H97.2074V34.6393C97.2074 35.127 97.3293 35.5009 97.5732 35.7611C97.8171 36.0212 98.1504 36.1512 98.5731 36.1512C99.1096 36.1512 99.581 36.0131 99.9875 35.7367L101.134 38.9801ZM109.163 39.7361C107.749 39.7361 106.472 39.4434 105.334 38.8582C104.196 38.2729 103.302 37.46 102.652 36.4195C102.018 35.379 101.701 34.2003 101.701 32.8834C101.701 31.5828 102.018 30.4123 102.652 29.3718C103.302 28.3313 104.188 27.5265 105.31 26.9575C106.448 26.3722 107.732 26.0796 109.163 26.0796C110.594 26.0796 111.878 26.3722 113.016 26.9575C114.154 27.5265 115.04 28.3313 115.674 29.3718C116.308 30.396 116.625 31.5666 116.625 32.8834C116.625 34.2003 116.308 35.379 115.674 36.4195C115.04 37.46 114.154 38.2729 113.016 38.8582C111.878 39.4434 110.594 39.7361 109.163 39.7361ZM109.163 36.0537C109.976 36.0537 110.642 35.7773 111.163 35.2246C111.683 34.6555 111.943 33.8752 111.943 32.8834C111.943 31.908 111.683 31.1439 111.163 30.5911C110.642 30.0383 109.976 29.762 109.163 29.762C108.35 29.762 107.683 30.0383 107.163 30.5911C106.643 31.1439 106.383 31.908 106.383 32.8834C106.383 33.8752 106.643 34.6555 107.163 35.2246C107.683 35.7773 108.35 36.0537 109.163 36.0537ZM123.186 27.8842C123.657 27.2826 124.267 26.8356 125.015 26.5429C125.779 26.234 126.649 26.0796 127.624 26.0796V30.2497C127.201 30.2009 126.852 30.1765 126.575 30.1765C125.584 30.1765 124.803 30.4448 124.234 30.9813C123.681 31.5178 123.405 32.3388 123.405 33.4443V39.5166H118.772V26.2991H123.186V27.8842ZM154.629 22.446V32.8103C154.629 35.0701 154.068 36.7772 152.946 37.9315C151.841 39.0858 150.272 39.6629 148.239 39.6629C146.89 39.6629 145.736 39.4028 144.777 38.8825C143.834 38.3623 143.135 37.6226 142.679 36.6634C142.208 37.6388 141.501 38.3867 140.558 38.9069C139.615 39.4109 138.477 39.6629 137.144 39.6629C135.095 39.6629 133.51 39.0858 132.388 37.9315C131.283 36.7772 130.73 35.0701 130.73 32.8103V22.446H132.534V32.7371C132.534 36.2813 134.071 38.0534 137.144 38.0534C138.623 38.0534 139.769 37.6226 140.582 36.7609C141.395 35.883 141.801 34.5417 141.801 32.7371V22.446H143.582V32.7371C143.582 34.558 143.98 35.8993 144.777 36.7609C145.589 37.6226 146.744 38.0534 148.239 38.0534C149.719 38.0534 150.857 37.6226 151.654 36.7609C152.45 35.883 152.849 34.5417 152.849 32.7371V22.446H154.629ZM159.684 26.6892H161.415V39.5166H159.684V26.6892ZM160.562 23.8848C160.204 23.8848 159.903 23.7628 159.659 23.519C159.416 23.2751 159.294 22.9825 159.294 22.6411C159.294 22.3159 159.416 22.0314 159.659 21.7875C159.903 21.5437 160.204 21.4217 160.562 21.4217C160.919 21.4217 161.22 21.5437 161.464 21.7875C161.708 22.0151 161.83 22.2915 161.83 22.6167C161.83 22.9743 161.708 23.2751 161.464 23.519C161.22 23.7628 160.919 23.8848 160.562 23.8848ZM169.671 39.6385C168.631 39.6385 167.631 39.4922 166.672 39.1996C165.729 38.8907 164.989 38.5086 164.453 38.0534L165.233 36.6878C165.77 37.1105 166.444 37.46 167.257 37.7364C168.07 37.9965 168.915 38.1266 169.793 38.1266C170.964 38.1266 171.826 37.9477 172.378 37.5901C172.947 37.2161 173.232 36.6959 173.232 36.0293C173.232 35.5578 173.077 35.192 172.769 34.9319C172.46 34.6555 172.07 34.4523 171.598 34.3223C171.127 34.1759 170.501 34.0377 169.72 33.9077C168.68 33.7126 167.842 33.5175 167.208 33.3224C166.574 33.111 166.03 32.7615 165.575 32.2738C165.136 31.786 164.916 31.1113 164.916 30.2497C164.916 29.1767 165.363 28.2988 166.257 27.6159C167.152 26.9331 168.395 26.5917 169.989 26.5917C170.818 26.5917 171.647 26.7055 172.476 26.9331C173.305 27.1445 173.988 27.429 174.524 27.7866L173.768 29.1767C172.712 28.4451 171.452 28.0793 169.989 28.0793C168.883 28.0793 168.046 28.2744 167.477 28.6646C166.924 29.0547 166.648 29.5669 166.648 30.2009C166.648 30.6886 166.802 31.0788 167.111 31.3715C167.436 31.6641 167.834 31.8836 168.306 32.0299C168.777 32.16 169.428 32.2982 170.257 32.4445C171.281 32.6396 172.102 32.8347 172.72 33.0298C173.338 33.2249 173.866 33.5581 174.305 34.0296C174.744 34.5011 174.963 35.1514 174.963 35.9805C174.963 37.1023 174.492 37.9965 173.549 38.6631C172.622 39.3134 171.33 39.6385 169.671 39.6385ZM183.651 38.1022C184.448 38.1022 185.18 37.964 185.846 37.6876C186.529 37.395 187.106 36.9723 187.578 36.4195L188.553 37.5413C187.984 38.2241 187.277 38.7444 186.431 39.102C185.586 39.4597 184.651 39.6385 183.627 39.6385C182.31 39.6385 181.139 39.3622 180.115 38.8094C179.091 38.2404 178.294 37.46 177.725 36.4683C177.156 35.4766 176.872 34.3548 176.872 33.1029C176.872 31.8511 177.14 30.7293 177.677 29.7376C178.229 28.7458 178.985 27.9736 179.945 27.4208C180.904 26.8681 181.993 26.5917 183.212 26.5917C184.35 26.5917 185.375 26.8518 186.285 27.3721C187.212 27.8923 187.943 28.6158 188.48 29.5425C189.033 30.4692 189.325 31.5259 189.358 32.7127L178.823 34.7612C179.148 35.8017 179.733 36.6227 180.579 37.2243C181.44 37.8095 182.464 38.1022 183.651 38.1022ZM183.212 28.0793C182.318 28.0793 181.513 28.2906 180.798 28.7133C180.099 29.1198 179.546 29.6969 179.14 30.4448C178.75 31.1764 178.554 32.0218 178.554 32.981C178.554 33.2249 178.563 33.4037 178.579 33.5175L187.626 31.7617C187.431 30.6886 186.935 29.8107 186.139 29.1279C185.342 28.4288 184.367 28.0793 183.212 28.0793Z" fill="#4360F6"/>
<path d="M205.159 21.9395C196.694 21.9395 194.578 28.4878 194.578 31.7619C194.578 23.904 187.406 21.9395 183.82 21.9395C192.426 21.9395 194.578 15.2783 194.578 11.9478C194.578 19.9411 201.632 21.9395 205.159 21.9395Z" fill="#4360F6"/>
<path fill-rule="evenodd" clip-rule="evenodd" d="M22.0834 27.2333C24.3758 28.5568 24.3758 31.8656 22.0834 33.1891L5.16567 42.9565C2.87329 44.2801 0.00781238 42.6257 0.0078125 39.9787L0.00781335 20.4437C0.00781347 17.7967 2.87328 16.1423 5.16566 17.4658L22.0834 27.2333ZM10.0638 37.9923C10.0638 35.3351 11.7358 30.0206 18.4236 30.0206C15.637 30.0206 10.0638 28.3988 10.0638 21.9116C10.0638 24.6146 8.36402 30.0206 1.56476 30.0206C4.39779 30.0206 10.0638 31.615 10.0638 37.9923Z" fill="#4360F6"/>
<path fill-rule="evenodd" clip-rule="evenodd" d="M5.86617e-07 20.4437L0 33.8646C0.799123 34.0203 1.62474 34.1019 2.46942 34.1019C4.52983 34.1019 6.47687 33.6165 8.20246 32.7539C6.29468 30.6611 3.36101 30.0206 1.5654 30.0206C8.36466 30.0206 10.0645 24.6146 10.0645 21.9116C10.0645 25.1318 11.4378 27.1532 13.1618 28.3724C14.1713 26.8571 14.8672 25.115 15.157 23.2388L5.15785 17.4658C2.86547 16.1423 7.02334e-07 17.7967 5.86617e-07 20.4437Z" fill="white" fill-opacity="0.29"/>
</svg>
