<svg width="247" height="274" viewBox="0 0 247 274" fill="none" xmlns="http://www.w3.org/2000/svg">
<path d="M228.478 167.491C252.195 153.799 252.195 119.566 228.478 105.873L53.4473 4.81914C29.7304 -8.87379 0.0843164 8.24242 0.0843152 35.6283L0.0843064 237.736C0.0843052 265.122 29.7304 282.238 53.4473 268.545L228.478 167.491Z" fill="#4360F6"/>
<path d="M190.577 134.709C121.385 134.709 104.087 189.692 104.087 217.184C104.087 151.204 45.4666 134.709 16.1562 134.709C86.5012 134.709 104.087 78.7784 104.087 50.813C104.087 117.93 161.747 134.709 190.577 134.709Z" fill="white"/>
<path fill-rule="evenodd" clip-rule="evenodd" d="M0 174.481L6.0694e-06 35.6297C7.26648e-06 8.24374 29.6461 -8.87247 53.363 4.82048L156.805 64.543C146.975 128.199 91.9489 176.934 25.5398 176.934C16.8039 176.934 8.26498 176.091 0 174.481Z" fill="white" fill-opacity="0.29"/>
</svg>
